<?xml version="1.0" encoding="utf-8"?>
<!-- Generator: Adobe Illustrator 24.0.2, SVG Export Plug-In . SVG Version: 6.00 Build 0)  -->
<svg version="1.1" id="Camada_1" xmlns="http://www.w3.org/2000/svg" xmlns:xlink="http://www.w3.org/1999/xlink" x="0px" y="0px"
	 viewBox="0 0 2315 854" style="enable-background:new 0 0 2315 854;" xml:space="preserve">
<style type="text/css">
	.st0{fill:none;stroke-width:38;stroke-miterlimit:10;}
</style>
<g>
	<path class="st0" d="M334.04,367.59h105.6c21.6,0.81,34.8,6.4,39.6,16.8c3.99,7.6,6,18.81,6,33.6v132c0,12.81-5.61,25-16.8,36.6
		c-33.6,34.8-84,52.2-151.2,52.2c-59.61,0-111.4-22.5-155.4-67.5c-44.01-45-66-99.3-66-162.9s22.4-116.7,67.2-159.3
		c44.79-42.6,97.59-63.9,158.4-63.9c47.19,0,91.8,15.6,133.8,46.8c10.8,8.01,16.2,16.9,16.2,26.7c0,9.81-4.6,21.1-13.8,33.9
		c-15.6,21.21-29.8,31.8-42.6,31.8c-7.6,0-19.8-5.49-36.6-16.5c-16.8-11-36.81-16.5-60-16.5c-30.4,0-57.4,10.71-81,32.1
		c-23.61,21.4-35.4,49.41-35.4,84c0,34.6,12,64,36,88.2c24,24.21,51.2,36.3,81.6,36.3c21.99,0,41.79-3.6,59.4-10.8v-65.4h-47.4
		c-12.4,0-21.21-1.59-26.4-4.8c-5.2-3.2-8.61-7.89-10.2-14.1c-1.6-6.2-2.4-14.6-2.4-25.2c0-10.59,0.9-19.1,2.7-25.5
		c1.8-6.39,5.1-10.8,9.9-13.2C312.44,369.39,322.04,367.59,334.04,367.59z"/>
	<path class="st0" d="M738.43,350.19c2.4-22.4,18.2-33.6,47.4-33.6c15.6,0,27.2,1.2,34.8,3.6c7.59,2.4,12.9,6.6,15.9,12.6
		s4.8,11.31,5.4,15.9c0.6,4.6,0.9,11.5,0.9,20.7v210c0,9.21-0.3,16.11-0.9,20.7c-0.6,4.6-2.31,9.9-5.1,15.9
		c-5.61,10.41-19.3,15.6-41.1,15.6c-21.81,0-36.4-2.7-43.8-8.1c-7.41-5.4-11.7-13.29-12.9-23.7c-14.8,21.21-39.51,31.8-74.1,31.8
		c-34.6,0-66.7-15.8-96.3-47.4c-29.61-31.59-44.4-68.3-44.4-110.1c0-41.79,14.9-78.39,44.7-109.8c29.79-31.4,62.49-47.1,98.1-47.1
		c13.59,0,26,2.4,37.2,7.2c11.19,4.8,18.99,9.3,23.4,13.5C732.03,342.09,735.63,346.2,738.43,350.19z M629.23,474.99
		c0,13.2,5.19,25.11,15.6,35.7c10.4,10.6,23,15.9,37.8,15.9c14.79,0,27.09-5.4,36.9-16.2c9.8-10.8,14.7-22.7,14.7-35.7
		c0-12.99-4.71-25.1-14.1-36.3c-9.4-11.19-22-16.8-37.8-16.8c-15.81,0-28.6,5.61-38.4,16.8
		C634.12,449.59,629.23,461.79,629.23,474.99z"/>
	<path class="st0" d="M1105.63,320.19c7.59,2.4,13.89,6.51,18.9,12.3c5,5.8,7.5,15.1,7.5,27.9c0,12.81-3.81,26.8-11.4,42
		c-7.6,15.21-18.6,22.8-33,22.8c-7.2,0-14.1-1.59-20.7-4.8c-6.6-3.2-15.3-4.8-26.1-4.8s-20.91,3.81-30.3,11.4
		c-9.4,7.6-14.1,16.8-14.1,27.6v126c0,9.21-0.3,16.11-0.9,20.7c-0.6,4.6-2.5,9.9-5.7,15.9c-6,10.41-21.6,15.6-46.8,15.6
		c-19.2,0-33-3.39-41.4-10.2c-6.4-5.6-10-14.19-10.8-25.8c0-3.99,0-9.8,0-17.4v-210.6c0-9.2,0.3-16.1,0.9-20.7
		c0.6-4.59,2.3-9.69,5.1-15.3c5.6-10.8,21.2-16.2,46.8-16.2c24,0,39,4.6,45,13.8c4.4,6.4,6.6,13,6.6,19.8c2-2.79,4.89-6.2,8.7-10.2
		c3.8-3.99,11.9-9.39,24.3-16.2c12.39-6.8,23.3-10.2,32.7-10.2c9.39,0,17.3,0.51,23.7,1.5
		C1091.02,316.09,1098.02,317.79,1105.63,320.19z"/>
	<path class="st0" d="M1348.62,422.79l-39-2.4v82.8c0,10.8,1.7,18.6,5.1,23.4c3.39,4.8,9.8,7.2,19.2,7.2c9.39,0,16.59,0.3,21.6,0.9
		c5,0.6,10.29,2.5,15.9,5.7c9.2,5.2,13.8,18.6,13.8,40.2c0,25.2-5.61,40.6-16.8,46.2c-6,2.8-11.31,4.5-15.9,5.1
		c-4.6,0.6-11.31,0.9-20.1,0.9c-41.61,0-73.2-9.39-94.8-28.2c-21.6-18.8-32.4-50.6-32.4-95.4v-88.8c-7.6,1.2-15.81,1.8-24.6,1.8
		c-8.8,0-16.11-3.39-21.9-10.2c-5.8-6.8-8.7-18.39-8.7-34.8c0-16.4,0.99-28.29,3-35.7c2-7.4,4.8-12.69,8.4-15.9
		c6.39-5.19,14.4-7.8,24-7.8l19.8,2.4v-61.8c0-9.2,0.3-15.99,0.9-20.4c0.6-4.4,2.49-9.2,5.7-14.4c5.19-9.99,20.6-15,46.2-15
		c27.2,0,43.4,7.41,48.6,22.2c2,6.4,3,16.6,3,30.6v58.8c17.6-1.59,30.9-2.4,39.9-2.4s15.8,0.3,20.4,0.9c4.59,0.6,9.9,2.5,15.9,5.7
		c10.4,5.2,15.6,20.61,15.6,46.2c0,25.2-5.4,40.6-16.2,46.2c-6,2.8-11.31,4.5-15.9,5.1
		C1364.72,422.49,1357.82,422.79,1348.62,422.79z"/>
	<path class="st0" d="M1533.11,258.09c-3,5.8-8.31,9.9-15.9,12.3c-7.6,2.4-17.7,3.6-30.3,3.6s-22.71-1.2-30.3-3.6
		c-7.6-2.4-12.9-6.6-15.9-12.6s-4.8-11.3-5.4-15.9c-0.6-4.59-0.9-11.49-0.9-20.7c0-9.2,0.3-16.1,0.9-20.7
		c0.6-4.59,2.3-9.69,5.1-15.3c5.6-10.8,21.2-16.2,46.8-16.2c25.2,0,40.4,5.4,45.6,16.2c3.2,6,5.1,11.31,5.7,15.9
		c0.6,4.6,0.9,11.5,0.9,20.7c0,9.21-0.3,16.11-0.9,20.7C1537.91,247.09,1536.11,252.3,1533.11,258.09z M1434.41,369.39
		c0-9.2,0.3-16.1,0.9-20.7c0.6-4.59,2.3-9.9,5.1-15.9c5.6-10.4,21.2-15.6,46.8-15.6c19.2,0,32.79,3.4,40.8,10.2
		c6.8,5.61,10.4,14.2,10.8,25.8c0.39,4,0.6,9.81,0.6,17.4v210c0,9.21-0.3,16.11-0.9,20.7c-0.6,4.6-2.5,9.9-5.7,15.9
		c-5.2,10.41-20.61,15.6-46.2,15.6c-25.2,0-40.6-5.4-46.2-16.2c-2.8-6-4.5-11.19-5.1-15.6c-0.6-4.4-0.9-11.4-0.9-21V369.39z"/>
	<path class="st0" d="M1686.41,474.69c0,17.01,5.6,30.21,16.8,39.6c11.19,9.4,23.1,14.1,35.7,14.1s24.39-3.69,35.4-11.1
		c11-7.4,19.89-11.1,26.7-11.1c12,0,26.6,10.6,43.8,31.8c9.2,11.61,13.8,22,13.8,31.2c0,15.21-11.01,29.4-33,42.6
		c-22.8,16-50.8,24-84,24c-37.2,0-73-13.4-107.4-40.2c-16.41-12.8-29.8-29.9-40.2-51.3c-10.41-21.39-15.6-45-15.6-70.8
		c0-25.8,5.19-49.2,15.6-70.2c10.4-21,23.79-37.89,40.2-50.7c33.2-26.4,68.6-39.6,106.2-39.6c15.2,0,30,2.1,44.4,6.3
		c14.4,4.2,24.99,8.31,31.8,12.3l9.6,6c7.2,4.8,12.8,8.61,16.8,11.4c10.4,8.01,15.6,17.1,15.6,27.3s-4.2,21.7-12.6,34.5
		c-14.4,22-28.2,33-41.4,33c-7.6,0-18.4-4.4-32.4-13.2c-7.2-6.8-17.5-10.2-30.9-10.2c-13.41,0-25.9,4.8-37.5,14.4
		C1692.2,444.39,1686.41,457.69,1686.41,474.69z"/>
	<path class="st0" d="M1939,356.19c33.6-31.2,72-46.8,115.2-46.8c43.2,0,81.39,15.51,114.6,46.5c33.2,31,49.8,70.5,49.8,118.5
		c0,33.21-8.61,62.7-25.8,88.5c-17.2,25.8-38.1,44.8-62.7,57c-24.6,12.21-50.1,18.3-76.5,18.3s-52-6.5-76.8-19.5
		c-24.81-12.99-45.7-32.19-62.7-57.6c-17.01-25.4-25.5-54.09-25.5-86.1C1888.6,426.99,1905.4,387.39,1939,356.19z M2014,517.89
		c12.8,9.81,25.8,14.7,39,14.7c13.2,0,26.4-5,39.6-15c13.2-9.99,19.8-24.8,19.8-44.4c0-19.59-6.21-34.2-18.6-43.8
		c-12.4-9.6-25.8-14.4-40.2-14.4s-27.81,5.01-40.2,15c-12.4,10-18.6,24.7-18.6,44.1C1994.8,493.5,2001.2,508.09,2014,517.89z"/>
</g>
</svg>
